TITLE ""
FILE "LR_black_phrase_B03.mp3" MP3
  TRACK 01 AUDIO
    TITLE "LR_black_phrase_B03_001"
    INDEX 01 00:00:00
  TRACK 02 AUDIO
    TITLE "LR_black_phrase_B03_002"
    INDEX 01 00:00:14
  TRACK 03 AUDIO
    TITLE "LR_black_phrase_B03_003"
    INDEX 01 00:01:37
  TRACK 04 AUDIO
    TITLE "LR_black_phrase_B03_004"
    INDEX 01 00:02:01
  TRACK 05 AUDIO
    TITLE "LR_black_phrase_B03_005"
    INDEX 01 00:05:33
  TRACK 06 AUDIO
    TITLE "LR_black_phrase_B03_006"
    INDEX 01 00:06:32
  TRACK 07 AUDIO
    TITLE "LR_black_phrase_B03_007"
    INDEX 01 00:08:27
  TRACK 08 AUDIO
    TITLE "LR_black_phrase_B03_008"
    INDEX 01 00:08:67
  TRACK 09 AUDIO
    TITLE "LR_black_phrase_B03_009"
    INDEX 01 00:11:32
  TRACK 10 AUDIO
    TITLE "LR_black_phrase_B03_010"
    INDEX 01 00:11:63
  TRACK 11 AUDIO
    TITLE "LR_black_phrase_B03_011"
    INDEX 01 00:14:26
  TRACK 12 AUDIO
    TITLE "LR_black_phrase_B03_012"
    INDEX 01 00:15:31
  TRACK 13 AUDIO
    TITLE "LR_black_phrase_B03_013"
    INDEX 01 00:16:70
  TRACK 14 AUDIO
    TITLE "LR_black_phrase_B03_014"
    INDEX 01 00:17:34
  TRACK 15 AUDIO
    TITLE "LR_black_phrase_B03_015"
    INDEX 01 00:20:21
  TRACK 16 AUDIO
    TITLE "LR_black_phrase_B03_016"
    INDEX 01 00:21:22
  TRACK 17 AUDIO
    TITLE "LR_black_phrase_B03_017"
    INDEX 01 00:23:27
  TRACK 18 AUDIO
    TITLE "LR_black_phrase_B03_018"
    INDEX 01 00:23:64
  TRACK 19 AUDIO
    TITLE "LR_black_phrase_B03_019"
    INDEX 01 00:26:04
  TRACK 20 AUDIO
    TITLE "LR_black_phrase_B03_020"
    INDEX 01 00:26:35
  TRACK 21 AUDIO
    TITLE "LR_black_phrase_B03_021"
    INDEX 01 00:28:48
  TRACK 22 AUDIO
    TITLE "LR_black_phrase_B03_022"
    INDEX 01 00:29:57
  TRACK 23 AUDIO
    TITLE "LR_black_phrase_B03_023"
    INDEX 01 00:30:70
  TRACK 24 AUDIO
    TITLE "LR_black_phrase_B03_024"
    INDEX 01 00:31:34
  TRACK 25 AUDIO
    TITLE "LR_black_phrase_B03_025"
    INDEX 01 00:33:67
  TRACK 26 AUDIO
    TITLE "LR_black_phrase_B03_026"
    INDEX 01 00:34:68
  TRACK 27 AUDIO
    TITLE "LR_black_phrase_B03_027"
    INDEX 01 00:36:49
  TRACK 28 AUDIO
    TITLE "LR_black_phrase_B03_028"
    INDEX 01 00:37:11
  TRACK 29 AUDIO
    TITLE "LR_black_phrase_B03_029"
    INDEX 01 00:39:18
  TRACK 30 AUDIO
    TITLE "LR_black_phrase_B03_030"
    INDEX 01 00:39:48
  TRACK 31 AUDIO
    TITLE "LR_black_phrase_B03_031"
    INDEX 01 00:41:52
  TRACK 32 AUDIO
    TITLE "LR_black_phrase_B03_032"
    INDEX 01 00:42:58
  TRACK 33 AUDIO
    TITLE "LR_black_phrase_B03_033"
    INDEX 01 00:43:75
  TRACK 34 AUDIO
    TITLE "LR_black_phrase_B03_034"
    INDEX 01 00:44:39
  TRACK 35 AUDIO
    TITLE "LR_black_phrase_B03_035"
    INDEX 01 00:45:74
  TRACK 36 AUDIO
    TITLE "LR_black_phrase_B03_036"
    INDEX 01 00:46:73
  TRACK 37 AUDIO
    TITLE "LR_black_phrase_B03_037"
    INDEX 01 00:49:32
  TRACK 38 AUDIO
    TITLE "LR_black_phrase_B03_038"
    INDEX 01 00:49:75
  TRACK 39 AUDIO
    TITLE "LR_black_phrase_B03_039"
    INDEX 01 00:52:11
  TRACK 40 AUDIO
    TITLE "LR_black_phrase_B03_040"
    INDEX 01 00:52:40
  TRACK 41 AUDIO
    TITLE "LR_black_phrase_B03_041"
    INDEX 01 00:54:53
  TRACK 42 AUDIO
    TITLE "LR_black_phrase_B03_042"
    INDEX 01 00:55:52
  TRACK 43 AUDIO
    TITLE "LR_black_phrase_B03_043"
    INDEX 01 00:57:04
  TRACK 44 AUDIO
    TITLE "LR_black_phrase_B03_044"
    INDEX 01 00:57:47
  TRACK 45 AUDIO
    TITLE "LR_black_phrase_B03_045"
    INDEX 01 00:59:29
  TRACK 46 AUDIO
    TITLE "LR_black_phrase_B03_046"
    INDEX 01 01:00:30
  TRACK 47 AUDIO
    TITLE "LR_black_phrase_B03_047"
    INDEX 01 01:03:19
  TRACK 48 AUDIO
    TITLE "LR_black_phrase_B03_048"
    INDEX 01 01:03:52
  TRACK 49 AUDIO
    TITLE "LR_black_phrase_B03_049"
    INDEX 01 01:06:31
  TRACK 50 AUDIO
    TITLE "LR_black_phrase_B03_050"
    INDEX 01 01:06:50
  TRACK 51 AUDIO
    TITLE "LR_black_phrase_B03_051"
    INDEX 01 01:09:27
  TRACK 52 AUDIO
    TITLE "LR_black_phrase_B03_052"
    INDEX 01 01:10:23
  TRACK 53 AUDIO
    TITLE "LR_black_phrase_B03_053"
    INDEX 01 01:11:52
  TRACK 54 AUDIO
    TITLE "LR_black_phrase_B03_054"
    INDEX 01 01:12:22
  TRACK 55 AUDIO
    TITLE "LR_black_phrase_B03_055"
    INDEX 01 01:13:27
  TRACK 56 AUDIO
    TITLE "LR_black_phrase_B03_056"
    INDEX 01 01:14:26
  TRACK 57 AUDIO
    TITLE "LR_black_phrase_B03_057"
    INDEX 01 01:15:71
  TRACK 58 AUDIO
    TITLE "LR_black_phrase_B03_058"
    INDEX 01 01:16:29
  TRACK 59 AUDIO
    TITLE "LR_black_phrase_B03_059"
    INDEX 01 01:18:10
  TRACK 60 AUDIO
    TITLE "LR_black_phrase_B03_060"
    INDEX 01 01:18:30
  TRACK 61 AUDIO
    TITLE "LR_black_phrase_B03_061"
    INDEX 01 01:20:11
  TRACK 62 AUDIO
    TITLE "LR_black_phrase_B03_062"
    INDEX 01 01:21:11
  TRACK 63 AUDIO
    TITLE "LR_black_phrase_B03_063"
    INDEX 01 01:22:28
  TRACK 64 AUDIO
    TITLE "LR_black_phrase_B03_064"
    INDEX 01 01:22:67
  TRACK 65 AUDIO
    TITLE "LR_black_phrase_B03_065"
    INDEX 01 01:25:28
  TRACK 66 AUDIO
    TITLE "LR_black_phrase_B03_066"
    INDEX 01 01:26:22
  TRACK 67 AUDIO
    TITLE "LR_black_phrase_B03_067"
    INDEX 01 01:29:12
  TRACK 68 AUDIO
    TITLE "LR_black_phrase_B03_068"
    INDEX 01 01:29:51
  TRACK 69 AUDIO
    TITLE "LR_black_phrase_B03_069"
    INDEX 01 01:31:66
  TRACK 70 AUDIO
    TITLE "LR_black_phrase_B03_070"
    INDEX 01 01:32:20
  TRACK 71 AUDIO
    TITLE "LR_black_phrase_B03_071"
    INDEX 01 01:34:33
  TRACK 72 AUDIO
    TITLE "LR_black_phrase_B03_072"
    INDEX 01 01:35:36
  TRACK 73 AUDIO
    TITLE "LR_black_phrase_B03_073"
    INDEX 01 01:36:59
  TRACK 74 AUDIO
    TITLE "LR_black_phrase_B03_074"
    INDEX 01 01:37:25
  TRACK 75 AUDIO
    TITLE "LR_black_phrase_B03_075"
    INDEX 01 01:38:54
  TRACK 76 AUDIO
    TITLE "LR_black_phrase_B03_076"
    INDEX 01 01:39:52
  TRACK 77 AUDIO
    TITLE "LR_black_phrase_B03_077"
    INDEX 01 01:42:15
  TRACK 78 AUDIO
    TITLE "LR_black_phrase_B03_078"
    INDEX 01 01:42:54
  TRACK 79 AUDIO
    TITLE "LR_black_phrase_B03_079"
    INDEX 01 01:45:01
  TRACK 80 AUDIO
    TITLE "LR_black_phrase_B03_080"
    INDEX 01 01:45:29
  TRACK 81 AUDIO
    TITLE "LR_black_phrase_B03_081"
    INDEX 01 01:47:51
  TRACK 82 AUDIO
    TITLE "LR_black_phrase_B03_082"
    INDEX 01 01:48:55
  TRACK 83 AUDIO
    TITLE "LR_black_phrase_B03_083"
    INDEX 01 01:49:68
  TRACK 84 AUDIO
    TITLE "LR_black_phrase_B03_084"
    INDEX 01 01:50:32
  TRACK 85 AUDIO
    TITLE "LR_black_phrase_B03_085"
    INDEX 01 01:53:17
  TRACK 86 AUDIO
    TITLE "LR_black_phrase_B03_086"
    INDEX 01 01:54:14
  TRACK 87 AUDIO
    TITLE "LR_black_phrase_B03_087"
    INDEX 01 01:56:15
  TRACK 88 AUDIO
    TITLE "LR_black_phrase_B03_088"
    INDEX 01 01:56:56
  TRACK 89 AUDIO
    TITLE "LR_black_phrase_B03_089"
    INDEX 01 01:58:45
  TRACK 90 AUDIO
    TITLE "LR_black_phrase_B03_090"
    INDEX 01 01:58:75
  TRACK 91 AUDIO
    TITLE "LR_black_phrase_B03_091"
    INDEX 01 02:00:66
  TRACK 92 AUDIO
    TITLE "LR_black_phrase_B03_092"
    INDEX 01 02:01:69
  TRACK 93 AUDIO
    TITLE "LR_black_phrase_B03_093"
    INDEX 01 02:03:03
  TRACK 94 AUDIO
    TITLE "LR_black_phrase_B03_094"
    INDEX 01 02:03:42
  TRACK 95 AUDIO
    TITLE "LR_black_phrase_B03_095"
    INDEX 01 02:05:71
  TRACK 96 AUDIO
    TITLE "LR_black_phrase_B03_096"
    INDEX 01 02:06:64
  TRACK 97 AUDIO
    TITLE "LR_black_phrase_B03_097"
    INDEX 01 02:09:23
  TRACK 98 AUDIO
    TITLE "LR_black_phrase_B03_098"
    INDEX 01 02:09:63
  TRACK 99 AUDIO
    TITLE "LR_black_phrase_B03_099"
    INDEX 01 02:12:73
  TRACK 100 AUDIO
    TITLE "LR_black_phrase_B03_100"
    INDEX 01 02:13:21
  TRACK 101 AUDIO
    TITLE "LR_black_phrase_B03_101"
    INDEX 01 02:16:33
  TRACK 102 AUDIO
    TITLE "LR_black_phrase_B03_102"
    INDEX 01 02:17:33
  TRACK 103 AUDIO
    TITLE "LR_black_phrase_B03_103"
    INDEX 01 02:18:34
  TRACK 104 AUDIO
    TITLE "LR_black_phrase_B03_104"
    INDEX 01 02:18:75
  TRACK 105 AUDIO
    TITLE "LR_black_phrase_B03_105"
    INDEX 01 02:20:49
  TRACK 106 AUDIO
    TITLE "LR_black_phrase_B03_106"
    INDEX 01 02:21:48
  TRACK 107 AUDIO
    TITLE "LR_black_phrase_B03_107"
    INDEX 01 02:24:19
  TRACK 108 AUDIO
    TITLE "LR_black_phrase_B03_108"
    INDEX 01 02:24:56
  TRACK 109 AUDIO
    TITLE "LR_black_phrase_B03_109"
    INDEX 01 02:27:12
  TRACK 110 AUDIO
    TITLE "LR_black_phrase_B03_110"
    INDEX 01 02:27:37
  TRACK 111 AUDIO
    TITLE "LR_black_phrase_B03_111"
    INDEX 01 02:29:67
  TRACK 112 AUDIO
    TITLE "LR_black_phrase_B03_112"
    INDEX 01 02:30:69
  TRACK 113 AUDIO
    TITLE "LR_black_phrase_B03_113"
    INDEX 01 02:32:24
  TRACK 114 AUDIO
    TITLE "LR_black_phrase_B03_114"
    INDEX 01 02:32:64
  TRACK 115 AUDIO
    TITLE "LR_black_phrase_B03_115"
    INDEX 01 02:34:04
  TRACK 116 AUDIO
    TITLE "LR_black_phrase_B03_116"
    INDEX 01 02:34:72
  TRACK 117 AUDIO
    TITLE "LR_black_phrase_B03_117"
    INDEX 01 02:36:67
  TRACK 118 AUDIO
    TITLE "LR_black_phrase_B03_118"
    INDEX 01 02:37:33
  TRACK 119 AUDIO
    TITLE "LR_black_phrase_B03_119"
    INDEX 01 02:39:68
  TRACK 120 AUDIO
    TITLE "LR_black_phrase_B03_120"
    INDEX 01 02:40:22
  TRACK 121 AUDIO
    TITLE "LR_black_phrase_B03_121"
    INDEX 01 02:42:56
  TRACK 122 AUDIO
    TITLE "LR_black_phrase_B03_122"
    INDEX 01 02:43:58
  TRACK 123 AUDIO
    TITLE "LR_black_phrase_B03_123"
    INDEX 01 02:44:69
  TRACK 124 AUDIO
    TITLE "LR_black_phrase_B03_124"
    INDEX 01 02:45:35
  TRACK 125 AUDIO
    TITLE "LR_black_phrase_B03_125"
    INDEX 01 02:47:36
  TRACK 126 AUDIO
    TITLE "LR_black_phrase_B03_126"
    INDEX 01 02:48:35
  TRACK 127 AUDIO
    TITLE "LR_black_phrase_B03_127"
    INDEX 01 02:50:66
  TRACK 128 AUDIO
    TITLE "LR_black_phrase_B03_128"
    INDEX 01 02:51:30
  TRACK 129 AUDIO
    TITLE "LR_black_phrase_B03_129"
    INDEX 01 02:53:11
  TRACK 130 AUDIO
    TITLE "LR_black_phrase_B03_130"
    INDEX 01 02:53:40
  TRACK 131 AUDIO
    TITLE "LR_black_phrase_B03_131"
    INDEX 01 02:55:20
  TRACK 132 AUDIO
    TITLE "LR_black_phrase_B03_132"
    INDEX 01 02:56:25
  TRACK 133 AUDIO
    TITLE "LR_black_phrase_B03_133"
    INDEX 01 02:57:40
  TRACK 134 AUDIO
    TITLE "LR_black_phrase_B03_134"
    INDEX 01 02:58:04
  TRACK 135 AUDIO
    TITLE "LR_black_phrase_B03_135"
    INDEX 01 02:59:74
  TRACK 136 AUDIO
    TITLE "LR_black_phrase_B03_136"
    INDEX 01 03:00:74
  TRACK 137 AUDIO
    TITLE "LR_black_phrase_B03_137"
    INDEX 01 03:02:75
  TRACK 138 AUDIO
    TITLE "LR_black_phrase_B03_138"
    INDEX 01 03:03:41
  TRACK 139 AUDIO
    TITLE "LR_black_phrase_B03_139"
    INDEX 01 03:06:02
  TRACK 140 AUDIO
    TITLE "LR_black_phrase_B03_140"
    INDEX 01 03:06:29
  TRACK 141 AUDIO
    TITLE "LR_black_phrase_B03_141"
    INDEX 01 03:08:65
  TRACK 142 AUDIO
    TITLE "LR_black_phrase_B03_142"
    INDEX 01 03:09:73
  TRACK 143 AUDIO
    TITLE "LR_black_phrase_B03_143"
    INDEX 01 03:11:01
  TRACK 144 AUDIO
    TITLE "LR_black_phrase_B03_144"
    INDEX 01 03:11:40
  TRACK 145 AUDIO
    TITLE "LR_black_phrase_B03_145"
    INDEX 01 03:13:65
  TRACK 146 AUDIO
    TITLE "LR_black_phrase_B03_146"
    INDEX 01 03:14:62
  TRACK 147 AUDIO
    TITLE "LR_black_phrase_B03_147"
    INDEX 01 03:16:49
  TRACK 148 AUDIO
    TITLE "LR_black_phrase_B03_148"
    INDEX 01 03:17:15
  TRACK 149 AUDIO
    TITLE "LR_black_phrase_B03_149"
    INDEX 01 03:18:72
  TRACK 150 AUDIO
    TITLE "LR_black_phrase_B03_150"
    INDEX 01 03:19:26
  TRACK 151 AUDIO
    TITLE "LR_black_phrase_B03_151"
    INDEX 01 03:21:05
  TRACK 152 AUDIO
    TITLE "LR_black_phrase_B03_152"
    INDEX 01 03:22:05
  TRACK 153 AUDIO
    TITLE "LR_black_phrase_B03_153"
    INDEX 01 03:23:32
  TRACK 154 AUDIO
    TITLE "LR_black_phrase_B03_154"
    INDEX 01 03:24:02
  TRACK 155 AUDIO
    TITLE "LR_black_phrase_B03_155"
    INDEX 01 03:26:61
  TRACK 156 AUDIO
    TITLE "LR_black_phrase_B03_156"
    INDEX 01 03:27:63
  TRACK 157 AUDIO
    TITLE "LR_black_phrase_B03_157"
    INDEX 01 03:29:69
  TRACK 158 AUDIO
    TITLE "LR_black_phrase_B03_158"
    INDEX 01 03:30:34
  TRACK 159 AUDIO
    TITLE "LR_black_phrase_B03_159"
    INDEX 01 03:32:72
  TRACK 160 AUDIO
    TITLE "LR_black_phrase_B03_160"
    INDEX 01 03:33:28
  TRACK 161 AUDIO
    TITLE "LR_black_phrase_B03_161"
    INDEX 01 03:35:64
  TRACK 162 AUDIO
    TITLE "LR_black_phrase_B03_162"
    INDEX 01 03:36:70
  TRACK 163 AUDIO
    TITLE "LR_black_phrase_B03_163"
    INDEX 01 03:38:06
  TRACK 164 AUDIO
    TITLE "LR_black_phrase_B03_164"
    INDEX 01 03:38:43
  TRACK 165 AUDIO
    TITLE "LR_black_phrase_B03_165"
    INDEX 01 03:40:01
  TRACK 166 AUDIO
    TITLE "LR_black_phrase_B03_166"
    INDEX 01 03:40:75
  TRACK 167 AUDIO
    TITLE "LR_black_phrase_B03_167"
    INDEX 01 03:43:70
  TRACK 168 AUDIO
    TITLE "LR_black_phrase_B03_168"
    INDEX 01 03:44:32
  TRACK 169 AUDIO
    TITLE "LR_black_phrase_B03_169"
    INDEX 01 03:47:03
  TRACK 170 AUDIO
    TITLE "LR_black_phrase_B03_170"
    INDEX 01 03:47:26
  TRACK 171 AUDIO
    TITLE "LR_black_phrase_B03_171"
    INDEX 01 03:49:72
  TRACK 172 AUDIO
    TITLE "LR_black_phrase_B03_172"
    INDEX 01 03:50:70
  TRACK 173 AUDIO
    TITLE "LR_black_phrase_B03_173"
    INDEX 01 03:52:25
  TRACK 174 AUDIO
    TITLE "LR_black_phrase_B03_174"
    INDEX 01 03:52:69
  TRACK 175 AUDIO
    TITLE "LR_black_phrase_B03_175"
    INDEX 01 03:54:26
  TRACK 176 AUDIO
    TITLE "LR_black_phrase_B03_176"
    INDEX 01 03:55:24
  TRACK 177 AUDIO
    TITLE "LR_black_phrase_B03_177"
    INDEX 01 03:57:19
  TRACK 178 AUDIO
    TITLE "LR_black_phrase_B03_178"
    INDEX 01 03:57:54
  TRACK 179 AUDIO
    TITLE "LR_black_phrase_B03_179"
    INDEX 01 03:59:51
  TRACK 180 AUDIO
    TITLE "LR_black_phrase_B03_180"
    INDEX 01 04:00:01
  TRACK 181 AUDIO
    TITLE "LR_black_phrase_B03_181"
    INDEX 01 04:01:73
  TRACK 182 AUDIO
    TITLE "LR_black_phrase_B03_182"
    INDEX 01 04:03:06
  TRACK 183 AUDIO
    TITLE "LR_black_phrase_B03_183"
    INDEX 01 04:04:29
  TRACK 184 AUDIO
    TITLE "LR_black_phrase_B03_184"
    INDEX 01 04:04:64
  TRACK 185 AUDIO
    TITLE "LR_black_phrase_B03_185"
    INDEX 01 04:07:54
  TRACK 186 AUDIO
    TITLE "LR_black_phrase_B03_186"
    INDEX 01 04:08:54
  TRACK 187 AUDIO
    TITLE "LR_black_phrase_B03_187"
    INDEX 01 04:10:66
  TRACK 188 AUDIO
    TITLE "LR_black_phrase_B03_188"
    INDEX 01 04:11:33
  TRACK 189 AUDIO
    TITLE "LR_black_phrase_B03_189"
    INDEX 01 04:13:47
  TRACK 190 AUDIO
    TITLE "LR_black_phrase_B03_190"
    INDEX 01 04:14:02
  TRACK 191 AUDIO
    TITLE "LR_black_phrase_B03_191"
    INDEX 01 04:16:18
  TRACK 192 AUDIO
    TITLE "LR_black_phrase_B03_192"
    INDEX 01 04:17:21
  TRACK 193 AUDIO
    TITLE "LR_black_phrase_B03_193"
    INDEX 01 04:18:41
  TRACK 194 AUDIO
    TITLE "LR_black_phrase_B03_194"
    INDEX 01 04:19:05
  TRACK 195 AUDIO
    TITLE "LR_black_phrase_B03_195"
    INDEX 01 04:20:43
  TRACK 196 AUDIO
    TITLE "LR_black_phrase_B03_196"
    INDEX 01 04:21:43
  TRACK 197 AUDIO
    TITLE "LR_black_phrase_B03_197"
    INDEX 01 04:23:28
  TRACK 198 AUDIO
    TITLE "LR_black_phrase_B03_198"
    INDEX 01 04:23:67
  TRACK 199 AUDIO
    TITLE "LR_black_phrase_B03_199"
    INDEX 01 04:25:50
  TRACK 200 AUDIO
    TITLE "LR_black_phrase_B03_200"
    INDEX 01 04:26:05
  TRACK 201 AUDIO
    TITLE "LR_black_phrase_B03_201"
    INDEX 01 04:27:63
  TRACK 202 AUDIO
    TITLE "LR_black_phrase_B03_202"
    INDEX 01 04:28:66
  TRACK 203 AUDIO
    TITLE "LR_black_phrase_B03_203"
    INDEX 01 04:30:05
  TRACK 204 AUDIO
    TITLE "LR_black_phrase_B03_204"
    INDEX 01 04:30:46
  TRACK 205 AUDIO
    TITLE "LR_black_phrase_B03_205"
    INDEX 01 04:33:38
  TRACK 206 AUDIO
    TITLE "LR_black_phrase_B03_206"
    INDEX 01 04:34:34
  TRACK 207 AUDIO
    TITLE "LR_black_phrase_B03_207"
    INDEX 01 04:37:10
  TRACK 208 AUDIO
    TITLE "LR_black_phrase_B03_208"
    INDEX 01 04:37:50
  TRACK 209 AUDIO
    TITLE "LR_black_phrase_B03_209"
    INDEX 01 04:40:03
  TRACK 210 AUDIO
    TITLE "LR_black_phrase_B03_210"
    INDEX 01 04:40:32
  TRACK 211 AUDIO
    TITLE "LR_black_phrase_B03_211"
    INDEX 01 04:42:61
  TRACK 212 AUDIO
    TITLE "LR_black_phrase_B03_212"
    INDEX 01 04:43:58
  TRACK 213 AUDIO
    TITLE "LR_black_phrase_B03_213"
    INDEX 01 04:45:02
  TRACK 214 AUDIO
    TITLE "LR_black_phrase_B03_214"
    INDEX 01 04:45:37
  TRACK 215 AUDIO
    TITLE "LR_black_phrase_B03_215"
    INDEX 01 04:48:18
  TRACK 216 AUDIO
    TITLE "LR_black_phrase_B03_216"
    INDEX 01 04:49:20
  TRACK 217 AUDIO
    TITLE "LR_black_phrase_B03_217"
    INDEX 01 04:51:56
  TRACK 218 AUDIO
    TITLE "LR_black_phrase_B03_218"
    INDEX 01 04:52:16
  TRACK 219 AUDIO
    TITLE "LR_black_phrase_B03_219"
    INDEX 01 04:54:36
  TRACK 220 AUDIO
    TITLE "LR_black_phrase_B03_220"
    INDEX 01 04:54:56
  TRACK 221 AUDIO
    TITLE "LR_black_phrase_B03_221"
    INDEX 01 04:57:03
  TRACK 222 AUDIO
    TITLE "LR_black_phrase_B03_222"
    INDEX 01 04:58:01
  TRACK 223 AUDIO
    TITLE "LR_black_phrase_B03_223"
    INDEX 01 04:59:22
  TRACK 224 AUDIO
    TITLE "LR_black_phrase_B03_224"
    INDEX 01 04:59:61
  TRACK 225 AUDIO
    TITLE "LR_black_phrase_B03_225"
    INDEX 01 05:01:66
  TRACK 226 AUDIO
    TITLE "LR_black_phrase_B03_226"
    INDEX 01 05:02:63
  TRACK 227 AUDIO
    TITLE "LR_black_phrase_B03_227"
    INDEX 01 05:05:01
  TRACK 228 AUDIO
    TITLE "LR_black_phrase_B03_228"
    INDEX 01 05:05:36
  TRACK 229 AUDIO
    TITLE "LR_black_phrase_B03_229"
    INDEX 01 05:07:59
  TRACK 230 AUDIO
    TITLE "LR_black_phrase_B03_230"
    INDEX 01 05:08:01
  TRACK 231 AUDIO
    TITLE "LR_black_phrase_B03_231"
    INDEX 01 05:10:24
  TRACK 232 AUDIO
    TITLE "LR_black_phrase_B03_232"
    INDEX 01 05:11:17
  TRACK 233 AUDIO
    TITLE "LR_black_phrase_B03_233"
    INDEX 01 05:12:34
  TRACK 234 AUDIO
    TITLE "LR_black_phrase_B03_234"
    INDEX 01 05:12:70
  TRACK 235 AUDIO
    TITLE "LR_black_phrase_B03_235"
    INDEX 01 05:16:05
  TRACK 236 AUDIO
    TITLE "LR_black_phrase_B03_236"
    INDEX 01 05:17:04
  TRACK 237 AUDIO
    TITLE "LR_black_phrase_B03_237"
    INDEX 01 05:18:60
  TRACK 238 AUDIO
    TITLE "LR_black_phrase_B03_238"
    INDEX 01 05:19:27
  TRACK 239 AUDIO
    TITLE "LR_black_phrase_B03_239"
    INDEX 01 05:21:20
  TRACK 240 AUDIO
    TITLE "LR_black_phrase_B03_240"
    INDEX 01 05:21:39
  TRACK 241 AUDIO
    TITLE "LR_black_phrase_B03_241"
    INDEX 01 05:23:32
  TRACK 242 AUDIO
    TITLE "LR_black_phrase_B03_242"
    INDEX 01 05:24:32
  TRACK 243 AUDIO
    TITLE "LR_black_phrase_B03_243"
    INDEX 01 05:25:49
  TRACK 244 AUDIO
    TITLE "LR_black_phrase_B03_244"
    INDEX 01 05:26:15
  TRACK 245 AUDIO
    TITLE "LR_black_phrase_B03_245"
    INDEX 01 05:27:55
  TRACK 246 AUDIO
    TITLE "LR_black_phrase_B03_246"
    INDEX 01 05:28:55
  TRACK 247 AUDIO
    TITLE "LR_black_phrase_B03_247"
    INDEX 01 05:31:10
  TRACK 248 AUDIO
    TITLE "LR_black_phrase_B03_248"
    INDEX 01 05:31:47
  TRACK 249 AUDIO
    TITLE "LR_black_phrase_B03_249"
    INDEX 01 05:34:01
  TRACK 250 AUDIO
    TITLE "LR_black_phrase_B03_250"
    INDEX 01 05:34:30
  TRACK 251 AUDIO
    TITLE "LR_black_phrase_B03_251"
    INDEX 01 05:36:58
  TRACK 252 AUDIO
    TITLE "LR_black_phrase_B03_252"
    INDEX 01 05:37:62
  TRACK 253 AUDIO
    TITLE "LR_black_phrase_B03_253"
    INDEX 01 05:39:06
  TRACK 254 AUDIO
    TITLE "LR_black_phrase_B03_254"
    INDEX 01 05:39:45
  TRACK 255 AUDIO
    TITLE "LR_black_phrase_B03_255"
    INDEX 01 05:41:57
  TRACK 256 AUDIO
    TITLE "LR_black_phrase_B03_256"
    INDEX 01 05:42:55
  TRACK 257 AUDIO
    TITLE "LR_black_phrase_B03_257"
    INDEX 01 05:44:19
  TRACK 258 AUDIO
    TITLE "LR_black_phrase_B03_258"
    INDEX 01 05:44:48
  TRACK 259 AUDIO
    TITLE "LR_black_phrase_B03_259"
    INDEX 01 05:46:18
  TRACK 260 AUDIO
    TITLE "LR_black_phrase_B03_260"
    INDEX 01 05:46:41
  TRACK 261 AUDIO
    TITLE "LR_black_phrase_B03_261"
    INDEX 01 05:48:13
  TRACK 262 AUDIO
    TITLE "LR_black_phrase_B03_262"
    INDEX 01 05:49:18
  TRACK 263 AUDIO
    TITLE "LR_black_phrase_B03_263"
    INDEX 01 05:50:27
  TRACK 264 AUDIO
    TITLE "LR_black_phrase_B03_264"
    INDEX 01 05:50:68
  TRACK 265 AUDIO
    TITLE "LR_black_phrase_B03_265"
    INDEX 01 05:52:02
  TRACK 266 AUDIO
    TITLE "LR_black_phrase_B03_266"
    INDEX 01 05:53:02
  TRACK 267 AUDIO
    TITLE "LR_black_phrase_B03_267"
    INDEX 01 05:55:01
  TRACK 268 AUDIO
    TITLE "LR_black_phrase_B03_268"
    INDEX 01 05:55:40
  TRACK 269 AUDIO
    TITLE "LR_black_phrase_B03_269"
    INDEX 01 05:57:33
  TRACK 270 AUDIO
    TITLE "LR_black_phrase_B03_270"
    INDEX 01 05:57:62
  TRACK 271 AUDIO
    TITLE "LR_black_phrase_B03_271"
    INDEX 01 05:59:55
  TRACK 272 AUDIO
    TITLE "LR_black_phrase_B03_272"
    INDEX 01 06:00:55
  TRACK 273 AUDIO
    TITLE "LR_black_phrase_B03_273"
    INDEX 01 06:02:03
  TRACK 274 AUDIO
    TITLE "LR_black_phrase_B03_274"
    INDEX 01 06:02:38
  TRACK 275 AUDIO
    TITLE "LR_black_phrase_B03_275"
    INDEX 01 06:03:49
  TRACK 276 AUDIO
    TITLE "LR_black_phrase_B03_276"
    INDEX 01 06:04:47
  TRACK 277 AUDIO
    TITLE "LR_black_phrase_B03_277"
    INDEX 01 06:07:29
  TRACK 278 AUDIO
    TITLE "LR_black_phrase_B03_278"
    INDEX 01 06:07:63
  TRACK 279 AUDIO
    TITLE "LR_black_phrase_B03_279"
    INDEX 01 06:10:30
  TRACK 280 AUDIO
    TITLE "LR_black_phrase_B03_280"
    INDEX 01 06:10:49
  TRACK 281 AUDIO
    TITLE "LR_black_phrase_B03_281"
    INDEX 01 06:13:18
  TRACK 282 AUDIO
    TITLE "LR_black_phrase_B03_282"
    INDEX 01 06:14:12
  TRACK 283 AUDIO
    TITLE "LR_black_phrase_B03_283"
    INDEX 01 06:15:33
  TRACK 284 AUDIO
    TITLE "LR_black_phrase_B03_284"
    INDEX 01 06:15:70
  TRACK 285 AUDIO
    TITLE "LR_black_phrase_B03_285"
    INDEX 01 06:18:10
  TRACK 286 AUDIO
    TITLE "LR_black_phrase_B03_286"
    INDEX 01 06:19:09
  TRACK 287 AUDIO
    TITLE "LR_black_phrase_B03_287"
    INDEX 01 06:20:73
  TRACK 288 AUDIO
    TITLE "LR_black_phrase_B03_288"
    INDEX 01 06:21:35
  TRACK 289 AUDIO
    TITLE "LR_black_phrase_B03_289"
    INDEX 01 06:24:02
  TRACK 290 AUDIO
    TITLE "LR_black_phrase_B03_290"
    INDEX 01 06:24:22
  TRACK 291 AUDIO
    TITLE "LR_black_phrase_B03_291"
    INDEX 01 06:26:66
  TRACK 292 AUDIO
    TITLE "LR_black_phrase_B03_292"
    INDEX 01 06:27:62
  TRACK 293 AUDIO
    TITLE "LR_black_phrase_B03_293"
    INDEX 01 06:29:02
  TRACK 294 AUDIO
    TITLE "LR_black_phrase_B03_294"
    INDEX 01 06:29:35
  TRACK 295 AUDIO
    TITLE "LR_black_phrase_B03_295"
    INDEX 01 06:30:52
  TRACK 296 AUDIO
    TITLE "LR_black_phrase_B03_296"
    INDEX 01 06:31:53
  TRACK 297 AUDIO
    TITLE "LR_black_phrase_B03_297"
    INDEX 01 06:33:68
  TRACK 298 AUDIO
    TITLE "LR_black_phrase_B03_298"
    INDEX 01 06:34:26
  TRACK 299 AUDIO
    TITLE "LR_black_phrase_B03_299"
    INDEX 01 06:36:15
  TRACK 300 AUDIO
    TITLE "LR_black_phrase_B03_300"
    INDEX 01 06:36:37
  TRACK 301 AUDIO
    TITLE "LR_black_phrase_B03_301"
    INDEX 01 06:38:26
